<svg xmlns="http://www.w3.org/2000/svg" xmlns:xlink="http://www.w3.org/1999/xlink" width="500" zoomAndPan="magnify" viewBox="0 0 375 374.999991" height="500" preserveAspectRatio="xMidYMid meet" version="1.0"><defs><g/><clipPath id="db6945940a"><path d="M 167.238281 216.066406 L 207.734375 216.066406 L 207.734375 235.566406 L 167.238281 235.566406 Z M 167.238281 216.066406 " clip-rule="nonzero"/></clipPath><clipPath id="b4b041478f"><path d="M 176.984375 216.066406 L 198.011719 216.066406 C 203.390625 216.066406 207.753906 220.429688 207.753906 225.8125 C 207.753906 231.191406 203.390625 235.554688 198.011719 235.554688 L 176.984375 235.554688 C 171.601562 235.554688 167.238281 231.191406 167.238281 225.8125 C 167.238281 220.429688 171.601562 216.066406 176.984375 216.066406 Z M 176.984375 216.066406 " clip-rule="nonzero"/></clipPath></defs><g fill="#63ffcc" fill-opacity="1"><g transform="translate(43.599128, 194.169275)"><g><path d="M 30.285156 -31.242188 C 31.558594 -31.769531 31.613281 -33.785156 30.390625 -34.476562 C 30.285156 -34.582031 30.179688 -34.636719 30.074219 -34.6875 C 30.179688 -34.742188 30.339844 -34.742188 30.445312 -34.742188 C 30.976562 -34.847656 30.816406 -35.75 30.339844 -35.695312 C 29.542969 -35.589844 28.746094 -35.535156 27.953125 -35.429688 C 27.632812 -35.484375 27.316406 -35.429688 27.050781 -35.429688 C 26.519531 -35.378906 25.988281 -35.324219 25.40625 -35.21875 C 18.035156 -34.582031 10.609375 -34.421875 3.183594 -34.847656 C 3.023438 -34.898438 2.96875 -34.582031 3.128906 -34.582031 C 5.992188 -34.105469 8.859375 -33.785156 11.722656 -33.628906 C 11.722656 -33.574219 11.667969 -33.519531 11.667969 -33.46875 C 8.75 -33.46875 5.886719 -33.679688 2.96875 -33.945312 C 1.804688 -34.050781 0.742188 -33.042969 0.425781 -31.984375 C 0.105469 -30.710938 0.742188 -29.4375 1.804688 -28.855469 C 2.121094 -28.003906 2.8125 -27.261719 3.5 -26.785156 C 4.457031 -26.203125 5.621094 -26.042969 6.734375 -25.882812 C 8.113281 -25.777344 9.546875 -25.722656 10.980469 -25.722656 C 11.667969 -25.722656 12.359375 -25.722656 13.046875 -25.722656 L 13.046875 -24.027344 L 12.941406 -21.695312 C 12.835938 -18.933594 12.675781 -16.175781 12.515625 -13.472656 C 12.410156 -10.765625 12.359375 -8.007812 12.515625 -5.304688 C 12.625 -3.234375 13.101562 -0.796875 15.328125 -0.105469 C 16.441406 0.210938 17.769531 -0.425781 18.140625 -1.589844 C 18.511719 -2.652344 18.5625 -4.136719 18.777344 -5.09375 L 18.777344 -3.078125 C 18.722656 -2.332031 18.722656 -1.589844 18.671875 -0.847656 L 18.671875 -0.742188 C 19.625 -1.484375 19.835938 -2.757812 19.941406 -4.03125 C 19.890625 -5.886719 19.785156 -7.742188 19.730469 -9.601562 C 19.730469 -12.835938 19.679688 -16.070312 19.679688 -19.304688 C 19.679688 -21.640625 19.730469 -23.972656 19.730469 -26.308594 C 22.4375 -26.679688 25.089844 -27.15625 27.792969 -27.6875 C 27.953125 -27.6875 28.058594 -27.792969 28.164062 -27.898438 C 28.429688 -27.953125 28.746094 -28.058594 28.960938 -28.21875 C 29.808594 -28.800781 30.019531 -29.753906 30.074219 -30.710938 C 30.179688 -30.871094 30.234375 -31.027344 30.285156 -31.242188 Z M 6.734375 -27.15625 C 5.464844 -27.210938 4.085938 -27.582031 3.234375 -28.375 C 5.304688 -27.738281 7.425781 -27.367188 9.546875 -27.15625 C 8.59375 -27.101562 7.636719 -27.101562 6.734375 -27.15625 Z M 6.734375 -27.15625 "/></g></g></g><g fill="#63ffcc" fill-opacity="1"><g transform="translate(69.53478, 194.169275)"><g><path d="M 27.101562 -16.65625 C 28.429688 -18.085938 28.21875 -20.84375 26.148438 -21.535156 C 25.671875 -21.640625 25.246094 -21.800781 24.824219 -21.851562 L 24.824219 -23.019531 C 24.875 -24.292969 24.875 -25.566406 24.824219 -26.785156 C 24.824219 -26.945312 24.875 -27.101562 24.824219 -27.261719 C 24.714844 -29.117188 24.929688 -31.453125 23.921875 -33.097656 C 22.859375 -34.898438 20.632812 -34.953125 19.042969 -33.890625 C 17.238281 -32.671875 17.554688 -30.550781 17.875 -28.695312 C 17.980469 -26.519531 18.140625 -24.292969 18.246094 -22.117188 C 17.664062 -22.066406 17.132812 -21.957031 16.546875 -21.90625 C 14.691406 -21.746094 12.835938 -21.585938 10.980469 -21.320312 L 10.875 -21.320312 C 10.714844 -23.707031 10.554688 -26.148438 10.394531 -28.589844 L 10.238281 -31.132812 C 10.183594 -31.613281 9.972656 -32.621094 9.441406 -32.832031 C 9.230469 -32.9375 9.070312 -32.992188 8.859375 -32.992188 L 8.859375 -33.097656 C 8.804688 -34.316406 7.480469 -35.164062 6.363281 -35.007812 C 5.199219 -34.847656 4.296875 -33.734375 4.457031 -32.511719 C 4.984375 -28.484375 5.09375 -24.34375 5.144531 -20.261719 L 5.039062 -20.261719 C 4.984375 -20.261719 4.933594 -20.15625 4.878906 -20.101562 C 4.71875 -22.066406 4.507812 -24.132812 4.296875 -26.09375 C 4.03125 -28.695312 3.871094 -31.347656 3.339844 -33.890625 C 3.339844 -34 3.183594 -34 3.183594 -33.890625 C 3.078125 -31.398438 3.289062 -28.855469 3.339844 -26.359375 C 3.449219 -24.1875 3.5 -22.011719 3.554688 -19.890625 C 2.757812 -19.625 2.070312 -19.199219 1.644531 -18.511719 C 1.324219 -18.246094 1.007812 -17.925781 0.796875 -17.609375 C -0.476562 -15.859375 1.378906 -13.683594 3.183594 -14.425781 L 3.710938 -14.640625 C 3.871094 -10.714844 3.925781 -6.734375 4.242188 -2.8125 C 4.242188 -2.441406 4.613281 -2.226562 4.933594 -2.226562 C 5.039062 -1.960938 5.144531 -1.699219 5.304688 -1.433594 C 6.3125 0.425781 8.273438 0.210938 9.601562 -1.167969 C 10.238281 -1.855469 10.394531 -3.078125 10.5 -3.976562 C 10.554688 -4.402344 10.554688 -4.878906 10.609375 -5.304688 L 10.609375 -5.464844 C 10.925781 -7.160156 10.875 -8.964844 10.875 -10.714844 C 10.875 -12.253906 10.820312 -13.789062 10.765625 -15.328125 C 12.78125 -15.433594 14.851562 -15.488281 16.867188 -15.488281 C 17.238281 -15.488281 17.554688 -15.488281 17.925781 -15.488281 L 17.925781 -13.523438 C 17.925781 -11.507812 17.980469 -9.441406 18.085938 -7.425781 C 18.140625 -5.355469 18.246094 -3.339844 18.40625 -1.273438 C 18.457031 -0.582031 18.5625 0.316406 19.042969 0.847656 C 19.625 1.589844 20.578125 1.910156 21.535156 1.324219 C 21.800781 1.167969 22.066406 0.953125 22.222656 0.742188 C 22.277344 0.742188 22.277344 0.742188 22.277344 0.691406 C 23.390625 0.0546875 23.601562 -1.75 23.761719 -2.917969 C 23.921875 -4.191406 24.027344 -5.464844 24.132812 -6.789062 C 24.292969 -9.386719 24.453125 -12.039062 24.558594 -14.640625 C 25.722656 -14.480469 26.945312 -15.222656 27.101562 -16.496094 Z M 12.675781 -16.917969 C 14.425781 -17.027344 16.175781 -16.972656 17.925781 -16.917969 L 17.925781 -16.65625 C 17.609375 -16.65625 17.238281 -16.65625 16.867188 -16.707031 C 14.851562 -16.707031 12.78125 -16.601562 10.714844 -16.390625 L 10.714844 -16.601562 C 10.820312 -16.65625 10.875 -16.761719 10.925781 -16.867188 C 11.507812 -16.867188 12.09375 -16.917969 12.675781 -16.917969 Z M 12.675781 -16.917969 "/></g></g></g><g fill="#63ffcc" fill-opacity="1"><g transform="translate(92.871513, 194.169275)"><g><path d="M 1.21875 -28.003906 C 1.113281 -27.898438 1.113281 -27.738281 1.21875 -27.6875 C 2.386719 -28.21875 3.554688 -28.695312 4.773438 -29.066406 C 8.273438 -30.285156 11.882812 -31.082031 15.488281 -31.878906 C 17.554688 -32.355469 19.679688 -32.886719 21.746094 -33.414062 C 21.269531 -33.414062 20.792969 -33.414062 20.3125 -33.363281 C 18.035156 -33.203125 15.859375 -32.777344 13.683594 -32.355469 L 12.464844 -32.035156 C 8.644531 -31.027344 4.71875 -29.863281 1.21875 -28.003906 Z M 30.976562 -6.417969 C 31.613281 -6.894531 32.035156 -7.636719 31.984375 -8.59375 C 31.769531 -11.617188 30.761719 -16.285156 26.679688 -15.433594 C 26.09375 -15.277344 25.566406 -15.011719 24.980469 -14.851562 L 22.914062 -14.214844 C 21.640625 -13.789062 20.367188 -13.3125 19.09375 -12.835938 C 18.296875 -12.570312 17.503906 -12.253906 16.707031 -11.933594 L 12.199219 -10.183594 C 11.03125 -9.707031 9.867188 -9.230469 8.699219 -8.699219 L 8.539062 -8.59375 C 8.539062 -8.699219 8.539062 -8.75 8.539062 -8.804688 L 8.222656 -12.253906 C 9.707031 -12.996094 11.136719 -13.738281 12.675781 -14.375 C 15.167969 -15.433594 17.664062 -16.230469 20.207031 -16.917969 C 21.480469 -17.238281 22.808594 -17.503906 24.082031 -17.714844 C 25.300781 -17.980469 26.46875 -17.925781 27.582031 -18.457031 C 28.535156 -18.933594 29.171875 -20.101562 28.960938 -21.109375 C 28.855469 -21.640625 28.535156 -22.171875 28.058594 -22.4375 C 28.003906 -22.4375 28.003906 -22.4375 27.953125 -22.488281 C 27.898438 -22.699219 27.792969 -22.914062 27.6875 -23.125 C 27.632812 -23.230469 27.582031 -23.390625 27.476562 -23.550781 C 26.730469 -24.824219 25.460938 -24.875 24.132812 -24.824219 C 23.496094 -24.769531 22.914062 -24.714844 22.277344 -24.609375 L 21.585938 -24.453125 C 19.890625 -23.972656 18.140625 -23.496094 16.441406 -23.074219 C 13.417969 -21.957031 10.5 -20.6875 7.53125 -19.414062 C 7.53125 -19.679688 7.214844 -21.585938 7.160156 -22.117188 L 7.265625 -22.222656 C 8.910156 -22.914062 10.609375 -23.550781 12.304688 -24.132812 C 12.890625 -24.398438 18.140625 -25.988281 20.84375 -26.730469 C 20.949219 -26.730469 21.058594 -26.785156 21.164062 -26.839844 C 22.382812 -27.15625 23.601562 -27.527344 24.769531 -27.898438 L 27.421875 -28.695312 C 27.632812 -29.753906 27.476562 -30.871094 27.101562 -31.984375 C 26.839844 -32.195312 26.519531 -32.460938 26.253906 -32.671875 L 25.40625 -32.992188 C 25.089844 -33.097656 24.714844 -33.148438 24.34375 -33.203125 C 21.585938 -32.460938 18.828125 -31.71875 16.019531 -31.082031 C 12.410156 -30.339844 8.804688 -29.542969 5.304688 -28.324219 C 4.191406 -27.953125 3.023438 -27.527344 1.910156 -27.050781 C 1.855469 -26.890625 1.75 -26.730469 1.699219 -26.625 C 0.953125 -25.988281 0.476562 -25.195312 0.371094 -24.132812 C 0.265625 -23.230469 0.582031 -22.222656 1.21875 -21.535156 L 1.855469 -15.488281 L 2.492188 -9.121094 C 2.652344 -7.265625 2.757812 -5.355469 3.078125 -3.554688 C 2.597656 -2.175781 3.5 -0.582031 4.828125 -0.0546875 C 4.773438 0.210938 4.773438 0.425781 4.878906 0.691406 C 5.304688 1.589844 6.257812 1.644531 7.105469 1.484375 C 7.320312 1.484375 7.636719 1.433594 7.636719 1.433594 C 7.585938 1.484375 10.609375 0.582031 11.246094 0.160156 L 11.296875 0.105469 C 11.882812 -0.160156 12.464844 -0.371094 13.046875 -0.636719 C 13.152344 -0.691406 13.3125 -0.742188 13.417969 -0.796875 L 13.472656 -0.796875 C 15.222656 -1.539062 17.027344 -2.175781 18.828125 -2.8125 C 22.59375 -4.136719 26.519531 -5.144531 30.445312 -5.886719 C 30.761719 -5.941406 30.921875 -6.152344 30.976562 -6.417969 Z M 18.140625 -17.664062 L 18.191406 -17.503906 C 17.875 -17.398438 17.609375 -17.292969 17.292969 -17.132812 C 14.640625 -16.070312 11.882812 -15.0625 9.28125 -13.738281 C 9.707031 -14.109375 10.023438 -14.640625 10.128906 -15.222656 C 11.136719 -15.488281 12.144531 -15.804688 13.207031 -16.125 C 14.851562 -16.65625 16.496094 -17.132812 18.140625 -17.664062 Z M 6.417969 0.691406 C 7.480469 0.425781 8.488281 0 9.496094 -0.371094 C 10.5 -0.691406 11.457031 -1.0625 12.410156 -1.433594 L 12.410156 -1.324219 C 11.617188 -0.902344 10.820312 -0.476562 9.972656 -0.0546875 C 9.601562 0.160156 9.175781 0.371094 8.75 0.582031 C 8.699219 0.636719 8.644531 0.636719 8.59375 0.636719 C 8.433594 0.691406 7.214844 0.796875 6.417969 0.691406 Z M 6.417969 0.691406 "/></g></g></g><g fill="#63ffcc" fill-opacity="1"><g transform="translate(119.86794, 194.169275)"><g><path d="M 29.492188 -21.480469 C 29.808594 -22.328125 29.96875 -23.335938 29.703125 -24.238281 C 29.332031 -25.511719 28.003906 -26.203125 26.730469 -26.042969 C 24.238281 -25.722656 21.800781 -25.035156 19.359375 -24.453125 C 16.917969 -23.867188 14.480469 -23.230469 12.09375 -22.542969 C 11.988281 -22.488281 11.882812 -22.488281 11.828125 -22.4375 C 10.765625 -22.171875 10.394531 -21.269531 10.5 -20.421875 L 10.183594 -20.261719 C 8.113281 -19.148438 9.546875 -15.910156 11.773438 -16.496094 C 14.160156 -17.132812 16.496094 -17.875 18.882812 -18.40625 C 20.050781 -18.671875 21.214844 -18.882812 22.382812 -19.148438 L 22.59375 -19.148438 C 22.117188 -18.296875 21.640625 -17.449219 21.109375 -16.601562 C 19.996094 -14.796875 18.722656 -13.152344 17.183594 -11.667969 C 15.859375 -10.394531 14.214844 -9.28125 12.515625 -8.539062 C 12.199219 -8.433594 11.828125 -8.273438 11.457031 -8.167969 C 10.183594 -7.851562 8.910156 -7.742188 7.636719 -7.957031 L 6.949219 -8.113281 C 5.675781 -8.910156 5.199219 -10.609375 5.25 -12.199219 C 5.25 -14.109375 5.886719 -16.070312 6.683594 -17.769531 C 8.273438 -21.164062 10.980469 -24.027344 14.269531 -25.832031 C 16.175781 -26.839844 18.296875 -27.527344 20.421875 -27.847656 C 21.480469 -28.003906 22.542969 -28.058594 23.601562 -28.058594 C 24.824219 -28.003906 25.988281 -28.109375 27.15625 -28.058594 C 27.527344 -28.058594 27.738281 -28.429688 27.632812 -28.746094 C 28.21875 -28.855469 28.746094 -29.011719 28.960938 -29.597656 C 29.597656 -31.503906 27.15625 -32.089844 25.832031 -32.355469 C 21.90625 -33.148438 17.714844 -32.511719 13.894531 -31.503906 C 13.472656 -31.398438 13.261719 -31.132812 13.207031 -30.816406 C 9.652344 -29.703125 6.472656 -27.367188 4.03125 -24.558594 C 1.324219 -21.429688 -0.691406 -17.34375 -0.0546875 -13.101562 C 0.210938 -11.03125 1.113281 -9.175781 2.441406 -7.742188 C 3.128906 -6.472656 4.085938 -5.410156 5.25 -4.71875 C 6.207031 -4.136719 7.265625 -3.925781 8.328125 -3.871094 C 8.378906 -3.394531 9.175781 -3.234375 9.601562 -3.183594 C 11.03125 -3.183594 12.410156 -3.339844 13.789062 -3.660156 C 16.65625 -4.347656 19.199219 -5.78125 21.480469 -7.53125 C 24.027344 -9.546875 26.09375 -12.039062 27.847656 -14.796875 C 27.953125 -15.011719 28.058594 -15.222656 28.164062 -15.433594 L 28.324219 -15.910156 C 28.589844 -16.761719 28.746094 -17.609375 28.960938 -18.457031 C 28.855469 -18.5625 28.800781 -18.671875 28.746094 -18.777344 C 25.195312 -11.03125 18.351562 -6.472656 16.230469 -5.464844 C 15.117188 -4.878906 13.894531 -4.402344 12.675781 -4.085938 C 12.253906 -3.976562 9.121094 -3.289062 8.59375 -3.871094 C 9.757812 -3.871094 11.03125 -4.085938 12.144531 -4.402344 L 12.730469 -4.5625 C 14.957031 -5.144531 17.078125 -6.257812 18.988281 -7.585938 C 20.15625 -8.378906 21.214844 -9.386719 22.171875 -10.394531 C 24.027344 -12.09375 25.617188 -14.054688 26.945312 -16.230469 C 28.003906 -17.875 28.800781 -19.625 29.492188 -21.480469 Z M 29.492188 -21.480469 "/></g></g></g><g fill="#63ffcc" fill-opacity="1"><g transform="translate(144.742805, 194.169275)"><g><path d="M 20.050781 -22.753906 C 19.785156 -24.34375 19.464844 -25.988281 18.988281 -27.582031 C 18.457031 -29.117188 17.714844 -30.605469 16.972656 -32.035156 C 16.707031 -32.511719 16.175781 -32.621094 15.753906 -32.460938 C 15.382812 -33.148438 14.851562 -34.050781 14.160156 -34.476562 C 13.523438 -34.847656 12.625 -34.847656 11.882812 -34.6875 C 11.191406 -34.742188 10.5 -34.527344 9.8125 -34.265625 C 8.113281 -33.890625 6.84375 -32.25 5.941406 -30.285156 C 5.835938 -30.285156 5.675781 -30.339844 5.515625 -30.285156 C 5.726562 -30.871094 5.941406 -31.453125 6.207031 -32.035156 C 6.417969 -32.566406 6.734375 -33.097656 7.054688 -33.628906 C 7.105469 -33.734375 7 -33.785156 6.949219 -33.679688 C 6.046875 -32.511719 5.355469 -31.242188 4.828125 -29.863281 C 4.773438 -29.808594 4.773438 -29.753906 4.71875 -29.753906 C 1.167969 -23.816406 0.210938 -16.8125 1.273438 -10.023438 C 1.804688 -6.894531 2.863281 -3.710938 5.355469 -1.589844 C 6.789062 -0.425781 8.75 0.210938 10.5 -0.105469 C 11.085938 -0.0546875 11.667969 -0.0546875 12.253906 -0.105469 C 13.738281 -0.316406 14.957031 -1.007812 15.964844 -2.015625 C 16.707031 -2.652344 17.34375 -3.394531 17.925781 -4.191406 C 19.679688 -6.683594 20.15625 -9.917969 20.421875 -12.835938 C 20.792969 -16.175781 20.578125 -19.464844 20.050781 -22.753906 Z M 13.417969 -7.320312 C 13.261719 -6.683594 12.996094 -6.097656 12.675781 -5.515625 C 12.359375 -4.933594 11.882812 -4.457031 11.246094 -4.242188 C 8.964844 -3.554688 7.105469 -5.726562 6.257812 -7.480469 C 6.789062 -7.160156 7.480469 -7 8.113281 -7.160156 C 8.328125 -7.214844 8.539062 -7.320312 8.699219 -7.425781 C 7.902344 -10.875 7.480469 -14.480469 7.636719 -18.085938 C 7.742188 -19.304688 7.851562 -20.527344 8.0625 -21.746094 C 8.113281 -21.800781 8.113281 -21.851562 8.167969 -21.957031 C 8.59375 -24.132812 9.28125 -26.308594 10.289062 -28.269531 C 10.5 -28.640625 10.714844 -29.066406 11.03125 -29.277344 C 8.007812 -22.914062 7.902344 -15.117188 9.386719 -8.222656 C 9.652344 -8.699219 9.707031 -9.230469 9.601562 -9.8125 C 8.964844 -13.738281 8.910156 -17.820312 9.386719 -21.746094 C 9.652344 -23.761719 10.128906 -25.722656 10.714844 -27.632812 C 10.875 -28.164062 11.085938 -28.855469 11.402344 -29.4375 L 11.667969 -29.4375 C 11.722656 -29.4375 11.828125 -29.382812 11.882812 -29.332031 C 12.09375 -28.960938 12.253906 -28.535156 12.410156 -28.164062 C 12.78125 -27.261719 13.101562 -26.308594 13.417969 -25.351562 C 13.578125 -24.609375 13.683594 -23.816406 13.84375 -23.019531 C 14.269531 -20.421875 14.425781 -17.714844 14.640625 -15.0625 C 14.640625 -12.464844 14.320312 -9.8125 13.417969 -7.320312 Z M 13.417969 -7.320312 "/></g></g></g><g fill="#63ffcc" fill-opacity="1"><g transform="translate(162.192206, 194.169275)"><g><path d="M 23.550781 -1.539062 C 25.089844 -1.378906 26.09375 -3.339844 25.351562 -4.613281 C 25.140625 -4.933594 24.929688 -5.199219 24.714844 -5.464844 C 24.769531 -5.726562 24.824219 -6.046875 24.824219 -6.3125 C 24.824219 -7.105469 24.238281 -7.691406 23.65625 -8.113281 C 23.019531 -8.59375 22.117188 -8.699219 21.320312 -8.75 C 20.3125 -8.804688 19.253906 -8.75 18.191406 -8.75 C 15.59375 -8.699219 12.941406 -8.378906 10.449219 -7.742188 C 10.449219 -7.851562 10.5 -7.902344 10.5 -8.0625 L 10.5 -8.167969 C 10.449219 -8.113281 10.394531 -8.113281 10.394531 -8.113281 L 10.238281 -10.820312 C 10.128906 -13.632812 9.972656 -16.441406 9.757812 -19.253906 C 9.546875 -21.90625 9.335938 -24.609375 9.070312 -27.316406 C 8.804688 -29.542969 8.75 -32.089844 7.320312 -33.945312 C 7.265625 -34.105469 7.054688 -34 7.105469 -33.839844 C 7.691406 -32.777344 7.851562 -31.613281 7.902344 -30.445312 C 7.957031 -29.542969 8.0625 -27.582031 8.007812 -26.308594 L 7.742188 -27.847656 C 7.480469 -29.753906 7.160156 -31.664062 6.789062 -33.574219 C 6.363281 -33.890625 5.886719 -34.050781 5.410156 -34.15625 C 4.984375 -34.371094 4.457031 -34.582031 3.925781 -34.636719 C 2.28125 -34.898438 0.742188 -33.945312 0.902344 -32.195312 C 1.21875 -27.210938 1.75 -22.222656 2.226562 -17.183594 C 2.492188 -14.691406 2.757812 -12.144531 3.078125 -9.652344 C 3.023438 -7.585938 3.023438 -5.515625 2.917969 -3.449219 C 2.917969 -2.917969 2.863281 -2.441406 2.863281 -1.910156 C 2.757812 -0.53125 4.242188 0.476562 5.515625 0.160156 C 11.402344 -1.433594 17.503906 -1.960938 23.550781 -1.539062 Z M 2.015625 -30.390625 C 1.960938 -31.398438 1.433594 -33.042969 2.652344 -33.519531 C 2.917969 -33.628906 3.234375 -33.679688 3.449219 -33.679688 C 3.339844 -33.519531 3.234375 -33.308594 3.183594 -33.148438 L 3.023438 -31.347656 C 2.597656 -29.96875 2.863281 -28.109375 2.917969 -26.839844 C 2.96875 -24.238281 3.023438 -21.640625 3.078125 -19.042969 L 3.078125 -16.125 C 2.8125 -19.890625 2.597656 -23.65625 2.28125 -27.476562 C 2.175781 -28.429688 2.121094 -29.4375 2.015625 -30.390625 Z M 22.648438 0.636719 C 23.335938 0.691406 23.335938 -0.476562 22.648438 -0.53125 C 19.625 -0.582031 16.601562 -0.476562 13.578125 -0.210938 C 12.253906 -0.105469 10.925781 0.0546875 9.546875 0.210938 C 8.167969 0.425781 6.578125 0.53125 5.355469 1.113281 C 5.304688 1.167969 5.304688 1.21875 5.355469 1.21875 C 6.734375 1.378906 8.273438 0.953125 9.652344 0.847656 C 11.085938 0.691406 12.515625 0.582031 13.949219 0.53125 C 16.867188 0.371094 19.730469 0.425781 22.648438 0.636719 Z M 22.648438 0.636719 "/></g></g></g><g fill="#63ffcc" fill-opacity="1"><g transform="translate(182.293558, 194.169275)"><g><path d="M 30.550781 -4.828125 C 31.71875 -7.585938 30.550781 -10.609375 29.277344 -13.101562 C 28.269531 -15.117188 26.996094 -16.972656 25.671875 -18.722656 C 24.875 -19.785156 23.972656 -20.792969 23.074219 -21.746094 C 20.527344 -24.664062 17.769531 -27.367188 15.011719 -30.019531 C 12.515625 -32.40625 9.972656 -34.742188 6.417969 -35.007812 C 5.199219 -35.113281 2.757812 -34.6875 2.28125 -33.308594 C 2.070312 -33.308594 1.804688 -33.257812 1.539062 -33.203125 C 0.582031 -33.042969 -0.210938 -32.140625 0.105469 -31.082031 C 0.160156 -30.921875 0.265625 -30.710938 0.316406 -30.496094 C 1.539062 -24.609375 2.757812 -18.722656 3.925781 -12.78125 C 4.085938 -12.144531 4.191406 -11.5625 4.296875 -10.925781 L 4.085938 -11.085938 C 2.597656 -11.933594 0.582031 -11.402344 -0.265625 -9.917969 C -1.167969 -8.433594 -0.691406 -6.363281 0.847656 -5.515625 C 2.492188 -4.667969 4.136719 -3.925781 5.835938 -3.234375 C 6.097656 -1.960938 6.472656 -1.113281 7.636719 -0.316406 C 8.167969 0.0546875 8.910156 0.160156 9.601562 0.105469 C 9.972656 0.105469 10.238281 -0.0546875 10.449219 -0.265625 C 10.660156 -0.160156 10.925781 -0.105469 11.191406 -0.160156 C 11.617188 -0.265625 11.988281 -0.636719 12.199219 -1.113281 C 13.472656 -0.796875 14.796875 -0.53125 16.125 -0.316406 C 18.933594 0.105469 21.695312 0.210938 24.453125 -0.425781 C 26.839844 -1.007812 29.542969 -2.492188 30.550781 -4.828125 Z M 1.960938 -26.625 C 2.652344 -24.34375 4.933594 -14.902344 5.621094 -12.410156 C 5.835938 -11.507812 6.152344 -10.609375 6.472656 -9.707031 C 6.152344 -9.867188 5.835938 -10.078125 5.515625 -10.238281 L 4.085938 -15.910156 C 3.128906 -19.570312 2.386719 -23.230469 1.484375 -26.890625 C 1.324219 -27.632812 1.910156 -26.839844 1.960938 -26.625 Z M 24.453125 -10.449219 C 24.824219 -9.867188 25.140625 -9.175781 25.460938 -8.539062 C 25.777344 -7.902344 26.09375 -7.320312 26.203125 -6.628906 C 25.617188 -6.097656 24.875 -5.835938 23.972656 -5.621094 C 22.859375 -5.304688 22.066406 -5.304688 20.792969 -5.304688 C 19.414062 -5.355469 18.722656 -5.464844 17.34375 -5.78125 C 15.59375 -6.152344 13.894531 -6.683594 12.253906 -7.265625 C 11.988281 -8.859375 11.667969 -10.449219 11.402344 -12.039062 C 10.660156 -16.441406 9.867188 -20.898438 8.964844 -25.300781 L 9.972656 -24.769531 C 12.464844 -23.335938 14.585938 -21.800781 16.601562 -19.941406 C 18.617188 -18.191406 20.421875 -16.175781 22.011719 -14.054688 C 22.859375 -12.890625 23.65625 -11.667969 24.453125 -10.449219 Z M 24.453125 -10.449219 "/></g></g></g><g fill="#63ffcc" fill-opacity="1"><g transform="translate(208.017048, 194.169275)"><g><path d="M 1.21875 -28.003906 C 1.113281 -27.898438 1.113281 -27.738281 1.21875 -27.6875 C 2.386719 -28.21875 3.554688 -28.695312 4.773438 -29.066406 C 8.273438 -30.285156 11.882812 -31.082031 15.488281 -31.878906 C 17.554688 -32.355469 19.679688 -32.886719 21.746094 -33.414062 C 21.269531 -33.414062 20.792969 -33.414062 20.3125 -33.363281 C 18.035156 -33.203125 15.859375 -32.777344 13.683594 -32.355469 L 12.464844 -32.035156 C 8.644531 -31.027344 4.71875 -29.863281 1.21875 -28.003906 Z M 30.976562 -6.417969 C 31.613281 -6.894531 32.035156 -7.636719 31.984375 -8.59375 C 31.769531 -11.617188 30.761719 -16.285156 26.679688 -15.433594 C 26.09375 -15.277344 25.566406 -15.011719 24.980469 -14.851562 L 22.914062 -14.214844 C 21.640625 -13.789062 20.367188 -13.3125 19.09375 -12.835938 C 18.296875 -12.570312 17.503906 -12.253906 16.707031 -11.933594 L 12.199219 -10.183594 C 11.03125 -9.707031 9.867188 -9.230469 8.699219 -8.699219 L 8.539062 -8.59375 C 8.539062 -8.699219 8.539062 -8.75 8.539062 -8.804688 L 8.222656 -12.253906 C 9.707031 -12.996094 11.136719 -13.738281 12.675781 -14.375 C 15.167969 -15.433594 17.664062 -16.230469 20.207031 -16.917969 C 21.480469 -17.238281 22.808594 -17.503906 24.082031 -17.714844 C 25.300781 -17.980469 26.46875 -17.925781 27.582031 -18.457031 C 28.535156 -18.933594 29.171875 -20.101562 28.960938 -21.109375 C 28.855469 -21.640625 28.535156 -22.171875 28.058594 -22.4375 C 28.003906 -22.4375 28.003906 -22.4375 27.953125 -22.488281 C 27.898438 -22.699219 27.792969 -22.914062 27.6875 -23.125 C 27.632812 -23.230469 27.582031 -23.390625 27.476562 -23.550781 C 26.730469 -24.824219 25.460938 -24.875 24.132812 -24.824219 C 23.496094 -24.769531 22.914062 -24.714844 22.277344 -24.609375 L 21.585938 -24.453125 C 19.890625 -23.972656 18.140625 -23.496094 16.441406 -23.074219 C 13.417969 -21.957031 10.5 -20.6875 7.53125 -19.414062 C 7.53125 -19.679688 7.214844 -21.585938 7.160156 -22.117188 L 7.265625 -22.222656 C 8.910156 -22.914062 10.609375 -23.550781 12.304688 -24.132812 C 12.890625 -24.398438 18.140625 -25.988281 20.84375 -26.730469 C 20.949219 -26.730469 21.058594 -26.785156 21.164062 -26.839844 C 22.382812 -27.15625 23.601562 -27.527344 24.769531 -27.898438 L 27.421875 -28.695312 C 27.632812 -29.753906 27.476562 -30.871094 27.101562 -31.984375 C 26.839844 -32.195312 26.519531 -32.460938 26.253906 -32.671875 L 25.40625 -32.992188 C 25.089844 -33.097656 24.714844 -33.148438 24.34375 -33.203125 C 21.585938 -32.460938 18.828125 -31.71875 16.019531 -31.082031 C 12.410156 -30.339844 8.804688 -29.542969 5.304688 -28.324219 C 4.191406 -27.953125 3.023438 -27.527344 1.910156 -27.050781 C 1.855469 -26.890625 1.75 -26.730469 1.699219 -26.625 C 0.953125 -25.988281 0.476562 -25.195312 0.371094 -24.132812 C 0.265625 -23.230469 0.582031 -22.222656 1.21875 -21.535156 L 1.855469 -15.488281 L 2.492188 -9.121094 C 2.652344 -7.265625 2.757812 -5.355469 3.078125 -3.554688 C 2.597656 -2.175781 3.5 -0.582031 4.828125 -0.0546875 C 4.773438 0.210938 4.773438 0.425781 4.878906 0.691406 C 5.304688 1.589844 6.257812 1.644531 7.105469 1.484375 C 7.320312 1.484375 7.636719 1.433594 7.636719 1.433594 C 7.585938 1.484375 10.609375 0.582031 11.246094 0.160156 L 11.296875 0.105469 C 11.882812 -0.160156 12.464844 -0.371094 13.046875 -0.636719 C 13.152344 -0.691406 13.3125 -0.742188 13.417969 -0.796875 L 13.472656 -0.796875 C 15.222656 -1.539062 17.027344 -2.175781 18.828125 -2.8125 C 22.59375 -4.136719 26.519531 -5.144531 30.445312 -5.886719 C 30.761719 -5.941406 30.921875 -6.152344 30.976562 -6.417969 Z M 18.140625 -17.664062 L 18.191406 -17.503906 C 17.875 -17.398438 17.609375 -17.292969 17.292969 -17.132812 C 14.640625 -16.070312 11.882812 -15.0625 9.28125 -13.738281 C 9.707031 -14.109375 10.023438 -14.640625 10.128906 -15.222656 C 11.136719 -15.488281 12.144531 -15.804688 13.207031 -16.125 C 14.851562 -16.65625 16.496094 -17.132812 18.140625 -17.664062 Z M 6.417969 0.691406 C 7.480469 0.425781 8.488281 0 9.496094 -0.371094 C 10.5 -0.691406 11.457031 -1.0625 12.410156 -1.433594 L 12.410156 -1.324219 C 11.617188 -0.902344 10.820312 -0.476562 9.972656 -0.0546875 C 9.601562 0.160156 9.175781 0.371094 8.75 0.582031 C 8.699219 0.636719 8.644531 0.636719 8.59375 0.636719 C 8.433594 0.691406 7.214844 0.796875 6.417969 0.691406 Z M 6.417969 0.691406 "/></g></g></g><g fill="#63ffcc" fill-opacity="1"><g transform="translate(235.013475, 194.169275)"><g><path d="M 23.019531 0.160156 C 24.027344 0.160156 24.875 -0.476562 25.460938 -1.273438 C 25.035156 -7.796875 24.453125 -14.375 23.390625 -20.84375 C 22.914062 -24.027344 22.382812 -27.261719 21.535156 -30.339844 C 21.269531 -31.347656 20.949219 -32.355469 20.738281 -33.363281 C 20.632812 -33.46875 20.527344 -33.574219 20.367188 -33.628906 C 19.464844 -34.265625 17.875 -34.371094 17.238281 -33.203125 C 17.238281 -33.148438 17.183594 -33.148438 17.183594 -33.097656 C 16.8125 -32.886719 16.496094 -32.511719 16.285156 -32.140625 C 15.699219 -31.082031 16.175781 -30.074219 16.441406 -29.066406 C 16.972656 -27.15625 17.292969 -25.246094 17.664062 -23.335938 C 18.140625 -20.632812 18.722656 -17.820312 18.988281 -15.167969 L 18.140625 -16.8125 C 18.140625 -16.972656 18.140625 -17.132812 18.035156 -17.34375 C 16.972656 -19.519531 15.859375 -21.640625 14.640625 -23.707031 C 13.207031 -26.308594 11.722656 -28.855469 9.917969 -31.242188 C 8.910156 -32.566406 5.886719 -35.695312 4.242188 -33.519531 C 3.976562 -33.148438 3.820312 -32.726562 3.820312 -32.300781 C 3.449219 -32.25 3.078125 -32.035156 2.8125 -31.824219 C 2.652344 -29.542969 2.757812 -27.210938 2.8125 -24.875 C 2.917969 -21.269531 2.96875 -17.609375 3.128906 -14.003906 C 3.289062 -9.546875 3.449219 -5.09375 3.710938 -0.636719 C 4.085938 -0.160156 4.5625 0.210938 5.199219 0.371094 C 6.363281 0.742188 7.585938 0.316406 8.222656 -0.742188 C 10.394531 -1.0625 9.8125 -4.136719 9.757812 -5.78125 C 9.707031 -7.902344 9.652344 -10.023438 9.546875 -12.144531 C 9.546875 -15.753906 9.601562 -19.359375 9.546875 -22.964844 C 9.8125 -22.59375 10.078125 -22.171875 10.394531 -21.800781 L 19.625 -5.304688 L 19.941406 -3.5 C 20.207031 -2.121094 20.527344 -0.476562 21.957031 0.160156 C 22.277344 0.316406 22.699219 0.371094 23.019531 0.160156 Z M 25.988281 -1.804688 C 26.042969 -2.546875 25.988281 -3.710938 25.9375 -4.085938 C 25.988281 -13.472656 24.824219 -22.859375 22.914062 -32.089844 C 22.808594 -32.621094 22.171875 -32.621094 21.90625 -32.300781 C 21.695312 -32.089844 21.695312 -31.878906 21.746094 -31.71875 C 23.921875 -21.851562 25.089844 -11.773438 25.777344 -1.644531 C 25.832031 -1.75 25.882812 -1.804688 25.988281 -1.804688 Z M 2.757812 -5.675781 C 2.96875 -3.394531 3.183594 -3.5 3.183594 -3.5 L 2.703125 -15.433594 C 2.597656 -19.148438 2.492188 -22.859375 2.441406 -26.519531 C 2.386719 -28.21875 2.332031 -29.914062 2.386719 -31.613281 C 2.015625 -30.761719 1.910156 -29.753906 1.960938 -28.855469 C 2.015625 -25.035156 2.070312 -21.214844 2.226562 -17.449219 C 2.386719 -13.632812 2.441406 -9.441406 2.757812 -5.675781 Z M 8.699219 -8.273438 C 8.75 -7.636719 8.804688 -7.054688 8.804688 -6.417969 C 8.910156 -5.355469 8.964844 -4.296875 9.015625 -3.289062 C 9.070312 -2.8125 8.910156 -2.015625 8.59375 -1.484375 C 8.910156 -2.8125 8.378906 -4.03125 8.378906 -4.878906 L 8.433594 -8.0625 C 8.488281 -8.113281 8.539062 -8.113281 8.539062 -8.113281 Z M 8.699219 -8.273438 "/></g></g></g><g fill="#63ffcc" fill-opacity="1"><g transform="translate(257.236389, 194.169275)"><g><path d="M 29.492188 -21.480469 C 29.808594 -22.328125 29.96875 -23.335938 29.703125 -24.238281 C 29.332031 -25.511719 28.003906 -26.203125 26.730469 -26.042969 C 24.238281 -25.722656 21.800781 -25.035156 19.359375 -24.453125 C 16.917969 -23.867188 14.480469 -23.230469 12.09375 -22.542969 C 11.988281 -22.488281 11.882812 -22.488281 11.828125 -22.4375 C 10.765625 -22.171875 10.394531 -21.269531 10.5 -20.421875 L 10.183594 -20.261719 C 8.113281 -19.148438 9.546875 -15.910156 11.773438 -16.496094 C 14.160156 -17.132812 16.496094 -17.875 18.882812 -18.40625 C 20.050781 -18.671875 21.214844 -18.882812 22.382812 -19.148438 L 22.59375 -19.148438 C 22.117188 -18.296875 21.640625 -17.449219 21.109375 -16.601562 C 19.996094 -14.796875 18.722656 -13.152344 17.183594 -11.667969 C 15.859375 -10.394531 14.214844 -9.28125 12.515625 -8.539062 C 12.199219 -8.433594 11.828125 -8.273438 11.457031 -8.167969 C 10.183594 -7.851562 8.910156 -7.742188 7.636719 -7.957031 L 6.949219 -8.113281 C 5.675781 -8.910156 5.199219 -10.609375 5.25 -12.199219 C 5.25 -14.109375 5.886719 -16.070312 6.683594 -17.769531 C 8.273438 -21.164062 10.980469 -24.027344 14.269531 -25.832031 C 16.175781 -26.839844 18.296875 -27.527344 20.421875 -27.847656 C 21.480469 -28.003906 22.542969 -28.058594 23.601562 -28.058594 C 24.824219 -28.003906 25.988281 -28.109375 27.15625 -28.058594 C 27.527344 -28.058594 27.738281 -28.429688 27.632812 -28.746094 C 28.21875 -28.855469 28.746094 -29.011719 28.960938 -29.597656 C 29.597656 -31.503906 27.15625 -32.089844 25.832031 -32.355469 C 21.90625 -33.148438 17.714844 -32.511719 13.894531 -31.503906 C 13.472656 -31.398438 13.261719 -31.132812 13.207031 -30.816406 C 9.652344 -29.703125 6.472656 -27.367188 4.03125 -24.558594 C 1.324219 -21.429688 -0.691406 -17.34375 -0.0546875 -13.101562 C 0.210938 -11.03125 1.113281 -9.175781 2.441406 -7.742188 C 3.128906 -6.472656 4.085938 -5.410156 5.25 -4.71875 C 6.207031 -4.136719 7.265625 -3.925781 8.328125 -3.871094 C 8.378906 -3.394531 9.175781 -3.234375 9.601562 -3.183594 C 11.03125 -3.183594 12.410156 -3.339844 13.789062 -3.660156 C 16.65625 -4.347656 19.199219 -5.78125 21.480469 -7.53125 C 24.027344 -9.546875 26.09375 -12.039062 27.847656 -14.796875 C 27.953125 -15.011719 28.058594 -15.222656 28.164062 -15.433594 L 28.324219 -15.910156 C 28.589844 -16.761719 28.746094 -17.609375 28.960938 -18.457031 C 28.855469 -18.5625 28.800781 -18.671875 28.746094 -18.777344 C 25.195312 -11.03125 18.351562 -6.472656 16.230469 -5.464844 C 15.117188 -4.878906 13.894531 -4.402344 12.675781 -4.085938 C 12.253906 -3.976562 9.121094 -3.289062 8.59375 -3.871094 C 9.757812 -3.871094 11.03125 -4.085938 12.144531 -4.402344 L 12.730469 -4.5625 C 14.957031 -5.144531 17.078125 -6.257812 18.988281 -7.585938 C 20.15625 -8.378906 21.214844 -9.386719 22.171875 -10.394531 C 24.027344 -12.09375 25.617188 -14.054688 26.945312 -16.230469 C 28.003906 -17.875 28.800781 -19.625 29.492188 -21.480469 Z M 29.492188 -21.480469 "/></g></g></g><g fill="#63ffcc" fill-opacity="1"><g transform="translate(282.111242, 194.169275)"><g><path d="M 25.566406 -10.238281 C 26.785156 -14.480469 26.996094 -18.933594 26.785156 -23.335938 L 26.785156 -25.460938 C 26.785156 -26.730469 26.574219 -28.003906 26.46875 -29.277344 C 26.308594 -31.242188 26.09375 -33.785156 23.707031 -34.050781 C 23.125 -34.105469 22.648438 -33.519531 22.648438 -32.992188 L 22.648438 -32.460938 C 21.320312 -33.203125 19.414062 -32.140625 19.464844 -30.550781 C 19.519531 -25.777344 19.570312 -21.058594 19.253906 -16.335938 C 19.148438 -14.53125 19.253906 -11.191406 18.035156 -9.386719 C 17.292969 -8.75 16.390625 -8.328125 15.382812 -8.113281 C 14.425781 -8.167969 13.632812 -8.59375 12.890625 -9.175781 C 11.457031 -12.996094 10.5 -16.972656 10.238281 -21.058594 C 10.128906 -23.019531 10.128906 -25.035156 10.289062 -27.050781 C 10.394531 -28.695312 11.246094 -30.65625 10.660156 -32.25 C 10.183594 -33.414062 9.070312 -34.316406 7.796875 -34.476562 C 4.613281 -34.953125 2.96875 -31.71875 2.386719 -29.066406 C 0.796875 -22.222656 1.0625 -14.796875 3.660156 -8.222656 C 3.976562 -7.425781 4.71875 -7.160156 5.355469 -7.214844 C 5.941406 -5.992188 6.683594 -4.828125 7.585938 -3.765625 C 10.238281 -0.691406 15.167969 1.273438 18.828125 -1.0625 C 19.730469 -1.484375 20.6875 -2.332031 21.164062 -2.863281 C 21.269531 -2.96875 21.375 -3.078125 21.535156 -3.183594 C 23.550781 -5.039062 24.769531 -7.636719 25.566406 -10.238281 Z M 10.078125 -28.90625 C 9.28125 -24.238281 9.335938 -19.464844 10.183594 -14.796875 C 10.128906 -14.851562 10.078125 -14.851562 10.023438 -14.851562 C 9.867188 -15.488281 9.707031 -16.175781 9.601562 -16.867188 C 8.910156 -20.367188 8.910156 -24.027344 9.335938 -27.632812 C 9.546875 -28.058594 9.652344 -28.535156 9.757812 -29.011719 C 9.8125 -28.90625 9.972656 -28.855469 10.078125 -28.90625 Z M 10.078125 -28.90625 "/></g></g></g><g fill="#63ffcc" fill-opacity="1"><g transform="translate(304.334156, 194.169275)"><g><path d="M 23.019531 0.160156 C 24.027344 0.160156 24.875 -0.476562 25.460938 -1.273438 C 25.035156 -7.796875 24.453125 -14.375 23.390625 -20.84375 C 22.914062 -24.027344 22.382812 -27.261719 21.535156 -30.339844 C 21.269531 -31.347656 20.949219 -32.355469 20.738281 -33.363281 C 20.632812 -33.46875 20.527344 -33.574219 20.367188 -33.628906 C 19.464844 -34.265625 17.875 -34.371094 17.238281 -33.203125 C 17.238281 -33.148438 17.183594 -33.148438 17.183594 -33.097656 C 16.8125 -32.886719 16.496094 -32.511719 16.285156 -32.140625 C 15.699219 -31.082031 16.175781 -30.074219 16.441406 -29.066406 C 16.972656 -27.15625 17.292969 -25.246094 17.664062 -23.335938 C 18.140625 -20.632812 18.722656 -17.820312 18.988281 -15.167969 L 18.140625 -16.8125 C 18.140625 -16.972656 18.140625 -17.132812 18.035156 -17.34375 C 16.972656 -19.519531 15.859375 -21.640625 14.640625 -23.707031 C 13.207031 -26.308594 11.722656 -28.855469 9.917969 -31.242188 C 8.910156 -32.566406 5.886719 -35.695312 4.242188 -33.519531 C 3.976562 -33.148438 3.820312 -32.726562 3.820312 -32.300781 C 3.449219 -32.25 3.078125 -32.035156 2.8125 -31.824219 C 2.652344 -29.542969 2.757812 -27.210938 2.8125 -24.875 C 2.917969 -21.269531 2.96875 -17.609375 3.128906 -14.003906 C 3.289062 -9.546875 3.449219 -5.09375 3.710938 -0.636719 C 4.085938 -0.160156 4.5625 0.210938 5.199219 0.371094 C 6.363281 0.742188 7.585938 0.316406 8.222656 -0.742188 C 10.394531 -1.0625 9.8125 -4.136719 9.757812 -5.78125 C 9.707031 -7.902344 9.652344 -10.023438 9.546875 -12.144531 C 9.546875 -15.753906 9.601562 -19.359375 9.546875 -22.964844 C 9.8125 -22.59375 10.078125 -22.171875 10.394531 -21.800781 L 19.625 -5.304688 L 19.941406 -3.5 C 20.207031 -2.121094 20.527344 -0.476562 21.957031 0.160156 C 22.277344 0.316406 22.699219 0.371094 23.019531 0.160156 Z M 25.988281 -1.804688 C 26.042969 -2.546875 25.988281 -3.710938 25.9375 -4.085938 C 25.988281 -13.472656 24.824219 -22.859375 22.914062 -32.089844 C 22.808594 -32.621094 22.171875 -32.621094 21.90625 -32.300781 C 21.695312 -32.089844 21.695312 -31.878906 21.746094 -31.71875 C 23.921875 -21.851562 25.089844 -11.773438 25.777344 -1.644531 C 25.832031 -1.75 25.882812 -1.804688 25.988281 -1.804688 Z M 2.757812 -5.675781 C 2.96875 -3.394531 3.183594 -3.5 3.183594 -3.5 L 2.703125 -15.433594 C 2.597656 -19.148438 2.492188 -22.859375 2.441406 -26.519531 C 2.386719 -28.21875 2.332031 -29.914062 2.386719 -31.613281 C 2.015625 -30.761719 1.910156 -29.753906 1.960938 -28.855469 C 2.015625 -25.035156 2.070312 -21.214844 2.226562 -17.449219 C 2.386719 -13.632812 2.441406 -9.441406 2.757812 -5.675781 Z M 8.699219 -8.273438 C 8.75 -7.636719 8.804688 -7.054688 8.804688 -6.417969 C 8.910156 -5.355469 8.964844 -4.296875 9.015625 -3.289062 C 9.070312 -2.8125 8.910156 -2.015625 8.59375 -1.484375 C 8.910156 -2.8125 8.378906 -4.03125 8.378906 -4.878906 L 8.433594 -8.0625 C 8.488281 -8.113281 8.539062 -8.113281 8.539062 -8.113281 Z M 8.699219 -8.273438 "/></g></g></g><g fill="#ff89a9" fill-opacity="1"><g transform="translate(145.034614, 210.108329)"><g><path d="M 0.484375 0 L 7.289062 0 L 7.289062 -1.871094 L 3.046875 -1.871094 L 3.046875 -6.949219 L 0.484375 -6.949219 Z M 0.484375 0 "/></g></g></g><g fill="#ff89a9" fill-opacity="1"><g transform="translate(152.348501, 210.108329)"><g><path d="M 0.484375 0 L 3.039062 0 L 3.039062 -6.949219 L 0.484375 -6.949219 Z M 0.484375 0 "/></g></g></g><g fill="#ff89a9" fill-opacity="1"><g transform="translate(155.733807, 210.108329)"><g><path d="M 0.484375 0 L 3.046875 0 L 3.046875 -2.4375 L 7.238281 -2.4375 L 7.238281 -3.890625 L 3.046875 -3.890625 L 3.046875 -5.152344 L 7.820312 -5.152344 L 7.820312 -6.949219 L 0.484375 -6.949219 Z M 0.484375 0 "/></g></g></g><g fill="#ff89a9" fill-opacity="1"><g transform="translate(163.600604, 210.108329)"><g><path d="M 0.484375 0 L 7.929688 0 L 7.929688 -1.570312 L 2.96875 -1.570312 L 2.96875 -2.863281 L 7.441406 -2.863281 L 7.441406 -4.210938 L 2.96875 -4.210938 L 2.96875 -5.375 L 7.832031 -5.375 L 7.832031 -6.949219 L 0.484375 -6.949219 Z M 0.484375 0 "/></g></g></g><g fill="#ff89a9" fill-opacity="1"><g transform="translate(171.583804, 210.108329)"><g/></g></g><g fill="#ff89a9" fill-opacity="1"><g transform="translate(173.717786, 210.108329)"><g><path d="M 0.484375 0 L 3.039062 0 L 3.039062 -6.949219 L 0.484375 -6.949219 Z M 0.484375 0 "/></g></g></g><g fill="#ff89a9" fill-opacity="1"><g transform="translate(177.103091, 210.108329)"><g><path d="M 4.570312 0.203125 C 7.152344 0.203125 8.8125 -0.777344 8.800781 -2.222656 C 8.800781 -3.484375 7.792969 -4.125 5.445312 -4.355469 L 4.152344 -4.503906 C 3.25 -4.589844 2.863281 -4.746094 2.871094 -5.007812 C 2.882812 -5.375 3.601562 -5.609375 4.601562 -5.617188 C 5.667969 -5.628906 6.8125 -5.316406 7.578125 -4.8125 L 8.277344 -6.277344 C 7.402344 -6.832031 6.027344 -7.160156 4.582031 -7.160156 C 2.078125 -7.160156 0.386719 -6.316406 0.378906 -4.824219 C 0.378906 -3.589844 1.328125 -2.980469 3.542969 -2.746094 L 4.824219 -2.601562 C 5.871094 -2.492188 6.316406 -2.300781 6.316406 -2.007812 C 6.316406 -1.628906 5.695312 -1.40625 4.707031 -1.40625 C 3.367188 -1.40625 1.863281 -1.871094 1.039062 -2.511719 L 0.195312 -0.988281 C 1.125 -0.28125 2.910156 0.203125 4.570312 0.203125 Z M 4.570312 0.203125 "/></g></g></g><g fill="#ff89a9" fill-opacity="1"><g transform="translate(185.95931, 210.108329)"><g/></g></g><g fill="#ff89a9" fill-opacity="1"><g transform="translate(188.093292, 210.108329)"><g><path d="M 4.804688 0.164062 C 6.25 0.164062 7.558594 -0.359375 8.210938 -1.164062 L 8.21875 -1.164062 L 8.316406 0 L 10.335938 0 L 10.335938 -4.007812 L 4.183594 -4.007812 L 4.183594 -2.738281 L 7.871094 -2.738281 C 7.773438 -2.007812 6.820312 -1.484375 5.558594 -1.484375 C 3.960938 -1.484375 2.882812 -2.261719 2.882812 -3.394531 C 2.882812 -4.601562 3.832031 -5.394531 5.238281 -5.394531 C 6.152344 -5.394531 6.929688 -5.007812 7.113281 -4.425781 L 9.511719 -4.832031 C 9.21875 -6.199219 7.492188 -7.121094 5.238281 -7.121094 C 2.289062 -7.121094 0.308594 -5.597656 0.308594 -3.328125 C 0.308594 -1.242188 2.117188 0.164062 4.804688 0.164062 Z M 4.804688 0.164062 "/></g></g></g><g fill="#ff89a9" fill-opacity="1"><g transform="translate(198.627643, 210.108329)"><g><path d="M 5.414062 0.242188 C 8.480469 0.242188 10.519531 -1.242188 10.519531 -3.472656 C 10.519531 -5.714844 8.480469 -7.191406 5.414062 -7.191406 C 2.347656 -7.191406 0.308594 -5.714844 0.308594 -3.472656 C 0.308594 -1.242188 2.347656 0.242188 5.414062 0.242188 Z M 5.414062 -1.550781 C 3.890625 -1.550781 2.871094 -2.320312 2.871094 -3.472656 C 2.871094 -4.628906 3.890625 -5.394531 5.414062 -5.394531 C 6.9375 -5.394531 7.949219 -4.628906 7.949219 -3.472656 C 7.949219 -2.320312 6.9375 -1.550781 5.414062 -1.550781 Z M 5.414062 -1.550781 "/></g></g></g><g fill="#ff89a9" fill-opacity="1"><g transform="translate(209.317194, 210.108329)"><g><path d="M 5.414062 0.242188 C 8.480469 0.242188 10.519531 -1.242188 10.519531 -3.472656 C 10.519531 -5.714844 8.480469 -7.191406 5.414062 -7.191406 C 2.347656 -7.191406 0.308594 -5.714844 0.308594 -3.472656 C 0.308594 -1.242188 2.347656 0.242188 5.414062 0.242188 Z M 5.414062 -1.550781 C 3.890625 -1.550781 2.871094 -2.320312 2.871094 -3.472656 C 2.871094 -4.628906 3.890625 -5.394531 5.414062 -5.394531 C 6.9375 -5.394531 7.949219 -4.628906 7.949219 -3.472656 C 7.949219 -2.320312 6.9375 -1.550781 5.414062 -1.550781 Z M 5.414062 -1.550781 "/></g></g></g><g fill="#ff89a9" fill-opacity="1"><g transform="translate(220.006745, 210.108329)"><g><path d="M 0.484375 0 L 5.433594 0 C 8.140625 0 9.644531 -1.242188 9.644531 -3.472656 C 9.644531 -5.707031 8.140625 -6.949219 5.433594 -6.949219 L 0.484375 -6.949219 Z M 2.96875 -1.726562 L 2.96875 -5.230469 L 5.066406 -5.230469 C 6.40625 -5.230469 7.152344 -4.601562 7.152344 -3.472656 C 7.152344 -2.359375 6.40625 -1.726562 5.066406 -1.726562 Z M 2.96875 -1.726562 "/></g></g></g><g clip-path="url(#db6945940a)"><g clip-path="url(#b4b041478f)"><path stroke-linecap="butt" transform="matrix(0.75, 0, 0, 0.75, 167.238774, 216.067443)" fill="none" stroke-linejoin="miter" d="M 12.994136 -0.00138182 L 41.030596 -0.00138182 C 48.202472 -0.00138182 54.020181 5.816327 54.020181 12.993411 C 54.020181 20.165286 48.202472 25.982995 41.030596 25.982995 L 12.994136 25.982995 C 5.817052 25.982995 -0.000656357 20.165286 -0.000656357 12.993411 C -0.000656357 5.816327 5.817052 -0.00138182 12.994136 -0.00138182 Z M 12.994136 -0.00138182 " stroke="#ff89a9" stroke-width="3" stroke-opacity="1" stroke-miterlimit="4"/></g></g><g fill="#ff89a9" fill-opacity="1"><g transform="translate(178.611804, 227.317442)"><g><path d="M 0.390625 0 L 0.390625 -0.765625 C 0.390625 -1.015625 0.4375 -1.234375 0.53125 -1.421875 C 0.632812 -1.617188 0.765625 -1.785156 0.921875 -1.921875 C 1.078125 -2.054688 1.25 -2.175781 1.4375 -2.28125 C 1.625 -2.382812 1.8125 -2.484375 2 -2.578125 C 2.1875 -2.671875 2.359375 -2.765625 2.515625 -2.859375 C 2.679688 -2.953125 2.8125 -3.054688 2.90625 -3.171875 C 3 -3.296875 3.046875 -3.4375 3.046875 -3.59375 C 3.046875 -3.800781 2.972656 -3.96875 2.828125 -4.09375 C 2.691406 -4.21875 2.5 -4.28125 2.25 -4.28125 C 2 -4.28125 1.785156 -4.207031 1.609375 -4.0625 C 1.429688 -3.914062 1.320312 -3.695312 1.28125 -3.40625 L 0.296875 -3.40625 C 0.304688 -3.71875 0.382812 -4.003906 0.53125 -4.265625 C 0.675781 -4.535156 0.894531 -4.742188 1.1875 -4.890625 C 1.476562 -5.046875 1.84375 -5.125 2.28125 -5.125 C 2.65625 -5.125 2.976562 -5.0625 3.25 -4.9375 C 3.53125 -4.8125 3.742188 -4.632812 3.890625 -4.40625 C 4.046875 -4.175781 4.125 -3.90625 4.125 -3.59375 C 4.125 -3.34375 4.078125 -3.125 3.984375 -2.9375 C 3.890625 -2.757812 3.765625 -2.601562 3.609375 -2.46875 C 3.453125 -2.34375 3.28125 -2.226562 3.09375 -2.125 C 2.914062 -2.03125 2.734375 -1.941406 2.546875 -1.859375 C 2.367188 -1.773438 2.203125 -1.6875 2.046875 -1.59375 C 1.890625 -1.507812 1.765625 -1.410156 1.671875 -1.296875 C 1.578125 -1.191406 1.53125 -1.0625 1.53125 -0.90625 L 1.53125 -0.859375 L 4.109375 -0.859375 L 4.109375 0 Z M 0.390625 0 "/></g></g></g><g fill="#ff89a9" fill-opacity="1"><g transform="translate(182.956206, 227.317442)"><g><path d="M 2.265625 -5.125 C 2.859375 -5.125 3.328125 -4.898438 3.671875 -4.453125 C 4.023438 -4.003906 4.203125 -3.359375 4.203125 -2.515625 C 4.203125 -1.679688 4.03125 -1.039062 3.6875 -0.59375 C 3.34375 -0.144531 2.867188 0.078125 2.265625 0.078125 C 1.648438 0.078125 1.171875 -0.144531 0.828125 -0.59375 C 0.484375 -1.039062 0.3125 -1.679688 0.3125 -2.515625 C 0.3125 -3.078125 0.390625 -3.550781 0.546875 -3.9375 C 0.703125 -4.332031 0.925781 -4.628906 1.21875 -4.828125 C 1.507812 -5.023438 1.859375 -5.125 2.265625 -5.125 Z M 2.265625 -0.765625 C 2.566406 -0.765625 2.785156 -0.894531 2.921875 -1.15625 C 3.054688 -1.425781 3.125 -1.878906 3.125 -2.515625 C 3.125 -3.160156 3.050781 -3.625 2.90625 -3.90625 C 2.769531 -4.1875 2.550781 -4.328125 2.25 -4.328125 C 1.957031 -4.328125 1.738281 -4.1875 1.59375 -3.90625 C 1.445312 -3.625 1.375 -3.160156 1.375 -2.515625 C 1.375 -1.890625 1.445312 -1.441406 1.59375 -1.171875 C 1.738281 -0.898438 1.960938 -0.765625 2.265625 -0.765625 Z M 2.265625 -0.765625 "/></g></g></g><g fill="#ff89a9" fill-opacity="1"><g transform="translate(187.367074, 227.317442)"><g><path d="M 0.390625 0 L 0.390625 -0.765625 C 0.390625 -1.015625 0.4375 -1.234375 0.53125 -1.421875 C 0.632812 -1.617188 0.765625 -1.785156 0.921875 -1.921875 C 1.078125 -2.054688 1.25 -2.175781 1.4375 -2.28125 C 1.625 -2.382812 1.8125 -2.484375 2 -2.578125 C 2.1875 -2.671875 2.359375 -2.765625 2.515625 -2.859375 C 2.679688 -2.953125 2.8125 -3.054688 2.90625 -3.171875 C 3 -3.296875 3.046875 -3.4375 3.046875 -3.59375 C 3.046875 -3.800781 2.972656 -3.96875 2.828125 -4.09375 C 2.691406 -4.21875 2.5 -4.28125 2.25 -4.28125 C 2 -4.28125 1.785156 -4.207031 1.609375 -4.0625 C 1.429688 -3.914062 1.320312 -3.695312 1.28125 -3.40625 L 0.296875 -3.40625 C 0.304688 -3.71875 0.382812 -4.003906 0.53125 -4.265625 C 0.675781 -4.535156 0.894531 -4.742188 1.1875 -4.890625 C 1.476562 -5.046875 1.84375 -5.125 2.28125 -5.125 C 2.65625 -5.125 2.976562 -5.0625 3.25 -4.9375 C 3.53125 -4.8125 3.742188 -4.632812 3.890625 -4.40625 C 4.046875 -4.175781 4.125 -3.90625 4.125 -3.59375 C 4.125 -3.34375 4.078125 -3.125 3.984375 -2.9375 C 3.890625 -2.757812 3.765625 -2.601562 3.609375 -2.46875 C 3.453125 -2.34375 3.28125 -2.226562 3.09375 -2.125 C 2.914062 -2.03125 2.734375 -1.941406 2.546875 -1.859375 C 2.367188 -1.773438 2.203125 -1.6875 2.046875 -1.59375 C 1.890625 -1.507812 1.765625 -1.410156 1.671875 -1.296875 C 1.578125 -1.191406 1.53125 -1.0625 1.53125 -0.90625 L 1.53125 -0.859375 L 4.109375 -0.859375 L 4.109375 0 Z M 0.390625 0 "/></g></g></g><g fill="#ff89a9" fill-opacity="1"><g transform="translate(191.711475, 227.317442)"><g><path d="M 0.34375 -3.5 C 0.34375 -3.863281 0.425781 -4.164062 0.59375 -4.40625 C 0.769531 -4.644531 1.003906 -4.820312 1.296875 -4.9375 C 1.585938 -5.0625 1.910156 -5.125 2.265625 -5.125 C 2.640625 -5.125 2.972656 -5.078125 3.265625 -4.984375 C 3.566406 -4.890625 3.800781 -4.738281 3.96875 -4.53125 C 4.144531 -4.332031 4.234375 -4.078125 4.234375 -3.765625 C 4.234375 -3.523438 4.160156 -3.304688 4.015625 -3.109375 C 3.867188 -2.921875 3.628906 -2.769531 3.296875 -2.65625 C 3.484375 -2.601562 3.65625 -2.523438 3.8125 -2.421875 C 3.976562 -2.316406 4.109375 -2.179688 4.203125 -2.015625 C 4.296875 -1.859375 4.34375 -1.664062 4.34375 -1.4375 C 4.34375 -1.1875 4.285156 -0.96875 4.171875 -0.78125 C 4.066406 -0.59375 3.914062 -0.429688 3.71875 -0.296875 C 3.53125 -0.171875 3.304688 -0.078125 3.046875 -0.015625 C 2.796875 0.046875 2.523438 0.078125 2.234375 0.078125 C 1.828125 0.078125 1.484375 0.0078125 1.203125 -0.125 C 0.921875 -0.257812 0.703125 -0.445312 0.546875 -0.6875 C 0.390625 -0.9375 0.3125 -1.226562 0.3125 -1.5625 L 1.296875 -1.5625 C 1.335938 -1.28125 1.445312 -1.070312 1.625 -0.9375 C 1.800781 -0.8125 2.007812 -0.75 2.25 -0.75 C 2.457031 -0.75 2.632812 -0.78125 2.78125 -0.84375 C 2.9375 -0.90625 3.054688 -0.988281 3.140625 -1.09375 C 3.222656 -1.195312 3.265625 -1.320312 3.265625 -1.46875 C 3.265625 -1.613281 3.222656 -1.738281 3.140625 -1.84375 C 3.054688 -1.945312 2.9375 -2.023438 2.78125 -2.078125 C 2.632812 -2.140625 2.46875 -2.175781 2.28125 -2.1875 L 1.796875 -2.203125 L 1.796875 -3.015625 L 2.234375 -3.03125 C 2.421875 -3.039062 2.582031 -3.078125 2.71875 -3.140625 C 2.851562 -3.203125 2.957031 -3.28125 3.03125 -3.375 C 3.101562 -3.476562 3.140625 -3.597656 3.140625 -3.734375 C 3.140625 -3.847656 3.097656 -3.953125 3.015625 -4.046875 C 2.941406 -4.140625 2.835938 -4.210938 2.703125 -4.265625 C 2.566406 -4.316406 2.414062 -4.34375 2.25 -4.34375 C 2.082031 -4.34375 1.929688 -4.3125 1.796875 -4.25 C 1.660156 -4.195312 1.550781 -4.109375 1.46875 -3.984375 C 1.382812 -3.867188 1.332031 -3.707031 1.3125 -3.5 Z M 0.34375 -3.5 "/></g></g></g></svg>